<?xml version="1.0" encoding="utf-8"?>
<!-- Generator: Adobe Illustrator 24.2.0, SVG Export Plug-In . SVG Version: 6.00 Build 0)  -->
<svg version="1.0" id="katman_1" xmlns="http://www.w3.org/2000/svg" xmlns:xlink="http://www.w3.org/1999/xlink" x="0px" y="0px"
	 viewBox="0 0 1000 1000" style="enable-background:new 0 0 1000 1000;" xml:space="preserve">
<style type="text/css">
	.st0{fill:#CED0D0;}
	.st1{fill:#9C9FA1;}
	.st2{fill:#FFFFFF;}
	.st3{fill:url(#SVGID_1_);}
	.st4{fill:url(#SVGID_2_);}
	.st5{fill:url(#SVGID_3_);}
	.st6{fill:url(#SVGID_4_);}
	.st7{fill:url(#SVGID_5_);}
	.st8{fill:url(#SVGID_6_);}
	.st9{fill:url(#SVGID_7_);}
	.st10{fill:url(#SVGID_8_);}
	.st11{fill:url(#SVGID_9_);}
	.st12{fill:url(#SVGID_10_);}
	.st13{fill:url(#SVGID_11_);}
	.st14{fill:url(#SVGID_12_);}
	.st15{fill:url(#SVGID_13_);}
	.st16{fill:url(#SVGID_14_);}
	.st17{fill:url(#SVGID_15_);}
	.st18{fill:url(#SVGID_16_);}
	.st19{fill:#F69226;}
	.st20{fill:#25B89B;}
	.st21{fill:#F6BC26;}
	.st22{fill:#69BD60;}
	.st23{fill:#EE5A9F;}
	.st24{fill:#00C0F2;}
	.st25{fill:#D02026;}
	.st26{fill:#3D70B6;}
	.st27{fill:#957CB8;}
</style>
<g>
	<path d="M444.1,517.6v20.3c-9,5.1-17.9,7.7-26.2,7.7c-11.7,0-21.8-4.4-30.4-13c-8.8-8.8-13-19-13-30.4c0-13,4.4-23.8,13-32.4
		c8.6-8.6,19.6-12.8,32.6-12.8c7.7,0,15.9,2,24,6v19.8c-8.8-5.5-17.2-8.4-25.3-8.4c-7.3,0-13.7,2.6-19.2,7.7
		c-5.5,5.1-8.2,11.2-8.2,18.1c0,7.7,2.6,14.3,7.7,19.6c5.1,5.3,11.5,7.9,19,7.9C425.8,527.8,434.4,524.5,444.1,517.6L444.1,517.6z
		 M450.3,500.9c0-11.5,4.4-21.8,13.7-30.6c9-9,19.4-13.4,31.3-13.4c12.1,0,22.7,4.4,31.7,13.2c9,8.8,13.4,19.2,13.4,30.9
		c0,11.9-4.4,22.3-13.2,31.3c-8.8,9-19,13.4-30.6,13.4c-12.3,0-23.1-4.4-32.4-13.4C454.7,523.4,450.3,513,450.3,500.9z M523,500.9
		c0-7.3-2.6-13.4-8.2-18.7c-5.5-5.3-11.9-7.9-19.4-7.9c-7.7,0-14.3,2.6-19.8,8.2c-5.5,5.3-8.4,11.7-8.4,19.2
		c0,7.1,2.9,13.2,8.4,18.7c5.5,5.3,12.1,7.9,19.6,7.9c7.3,0,13.7-2.6,19.2-8.2C520.4,514.5,523,508.2,523,500.9L523,500.9z
		 M549.5,431.7c0-3.7,1.3-6.8,4-9.5s6-4,9.7-4s6.8,1.3,9.5,4s4,5.7,4,9.5s-1.3,6.8-4,9.5s-5.7,4-9.5,4s-7.1-1.3-9.7-4
		C550.8,438.7,549.5,435.4,549.5,431.7z M554.3,459.2H572v84h-17.6V459.2z M588.7,543.2v-84h17.6v13.9c5.1-5.7,9.7-9.7,13.7-12.3
		c4.2-2.6,8.6-4,13.7-4c7.5,0,13.9,2.4,19.4,7.5c5.3,5.1,7.9,11,7.9,18.1v60.8h-17.6v-55.5c0-4.6-1.5-8.4-4.4-11.5
		c-2.9-3.1-6.6-4.4-11.2-4.4c-6,0-10.8,2.4-15.2,7.5c-4.2,5.1-6.4,11-6.4,18.1v45.8H588.7L588.7,543.2z M672,500.9
		c0-11.5,4.4-21.8,13.7-30.6c9-9,19.4-13.4,31.3-13.4c12.1,0,22.7,4.4,31.7,13.2c9,8.8,13.4,19.2,13.4,30.9
		c0,11.9-4.4,22.3-13.2,31.3c-8.8,9-19,13.4-30.6,13.4c-12.3,0-23.1-4.4-32.4-13.4C676.6,523.4,672,513,672,500.9L672,500.9z
		 M745,500.9c0-7.3-2.6-13.4-8.2-18.7c-5.5-5.3-11.9-7.9-19.4-7.9c-7.7,0-14.3,2.6-19.8,8.2c-5.5,5.3-8.4,11.7-8.4,19.2
		c0,7.1,2.9,13.2,8.4,18.7c5.5,5.3,12.1,7.9,19.6,7.9c7.3,0,13.7-2.6,19.2-8.2C742.1,514.5,745,508.2,745,500.9z M773,543.2v-84
		h17.6V472c4.2-5.3,8.2-9,11.7-11.5c3.7-2.4,8.2-3.7,13-3.7c6.4,0,11.2,1.3,15,4.2c3.5,2.9,6.6,7.3,9.3,13.2
		c4.4-6.2,8.6-10.6,12.8-13.2c4.2-2.9,8.8-4.2,14.3-4.2c6.6,0,12.3,2.4,17.2,7.5c4.8,5.1,7.3,10.8,7.3,17.9v61h-17.6v-56.9
		c0-9.3-4.6-14.1-13.7-14.1c-5.3,0-9.7,2.4-13.2,7.1c-3.7,4.8-5.5,10.8-5.5,17.6v46.3h-17.6V489c0-11-4.4-16.5-13.4-16.5
		c-5.3,0-9.9,2.2-13.4,6.8c-3.7,4.4-5.5,10.1-5.5,16.5v47.4H773L773,543.2z M903.6,431.7c0-3.7,1.3-6.8,4-9.5s6-4,9.7-4
		c3.7,0,6.8,1.3,9.5,4c2.6,2.6,4,5.7,4,9.5s-1.3,6.8-4,9.5c-2.6,2.6-5.7,4-9.5,4c-3.7,0-7.1-1.3-9.7-4
		C905.2,438.7,903.6,435.4,903.6,431.7z M908.7,459.2h17.6v84h-17.6V459.2z"/>
	<path class="st0" d="M195.7,373.5c-69.9,0-126.5,56.6-126.5,126.5s56.6,126.5,126.5,126.5S322.3,569.9,322.3,500
		C322,430.1,265.4,373.5,195.7,373.5z M195.7,614.4c-63.3,0-114.6-51.4-114.6-114.6s51.4-114.6,114.6-114.6s114.6,51.4,114.6,114.6
		C310.1,563.3,259,614.4,195.7,614.4z"/>
	<path class="st1" d="M195.7,383.2c32.2,0,61.3,13,82.4,34.2c21.2,21.2,34.2,50.2,34.2,82.4s-13,61.3-34.2,82.4
		c-21.2,21.2-50.2,34.4-82.4,34.4s-61.3-13-82.4-34.2c-21.2-21.2-34.4-50.2-34.4-82.4s13-61.3,34.2-82.4
		C134.3,396.4,163.3,383.2,195.7,383.2z"/>
	<path class="st2" d="M275.1,420.4c-20.3-20.5-48.3-33.1-79.3-33.1s-59.1,12.6-79.6,32.8c-20.5,20.5-33.1,48.7-33.1,79.8
		s12.6,59.1,33.1,79.3c20.3,20.3,48.5,32.8,79.6,32.8s59.1-12.6,79.6-32.8c20.3-20.3,32.8-48.5,32.8-79.6S295.6,440.7,275.1,420.4z"
		/>
	
		<linearGradient id="SVGID_1_" gradientUnits="userSpaceOnUse" x1="-435.6312" y1="1248.8479" x2="-413.3076" y2="1287.5115" gradientTransform="matrix(1 0 0 1 579.04 -722.3845)">
		<stop  offset="0" style="stop-color:#F69226"/>
		<stop  offset="1" style="stop-color:#00C0F2"/>
	</linearGradient>
	<path class="st3" d="M140.6,526l3.7-2.2l24,41.7l-3.7,2.2L140.6,526z"/>
	
		<linearGradient id="SVGID_2_" gradientUnits="userSpaceOnUse" x1="-445.7741" y1="1212.7444" x2="-445.7741" y2="1169.6466" gradientTransform="matrix(1 0 0 1 579.04 -722.3845)">
		<stop  offset="0" style="stop-color:#F69226"/>
		<stop  offset="1" style="stop-color:#CE2A31"/>
	</linearGradient>
	<path class="st4" d="M131.2,447.3h4.2v43.2h-4.2V447.3z"/>
	
		<linearGradient id="SVGID_3_" gradientUnits="userSpaceOnUse" x1="-431.2635" y1="1216.7996" x2="-405.0345" y2="1190.5685" gradientTransform="matrix(1 0 0 1 579.04 -722.3845)">
		<stop  offset="0" style="stop-color:#F69226"/>
		<stop  offset="1" style="stop-color:#9C9FA1"/>
	</linearGradient>
	<path class="st5" d="M147.9,497.4l-3.1-3.1l29.1-28.9l2.9,2.9L147.9,497.4z"/>
	
		<linearGradient id="SVGID_4_" gradientUnits="userSpaceOnUse" x1="-427.1509" y1="1231.3103" x2="-371.9534" y2="1231.3103" gradientTransform="matrix(1 0 0 1 579.04 -722.3845)">
		<stop  offset="0" style="stop-color:#F69226"/>
		<stop  offset="1" style="stop-color:#3D70B6"/>
	</linearGradient>
	<path class="st6" d="M151.9,506.8H207v4.2h-55.1V506.8z"/>
	
		<linearGradient id="SVGID_5_" gradientUnits="userSpaceOnUse" x1="-428.1428" y1="1241.4264" x2="-367.3628" y2="1276.5173" gradientTransform="matrix(1 0 0 1 579.04 -722.3845)">
		<stop  offset="0" style="stop-color:#F69226"/>
		<stop  offset="1" style="stop-color:#957CB8"/>
	</linearGradient>
	<path class="st7" d="M148.4,520.1l2-3.7l63.9,36.8l-2.2,3.7L148.4,520.1z"/>
	
		<linearGradient id="SVGID_6_" gradientUnits="userSpaceOnUse" x1="-395.8158" y1="1294.0591" x2="-367.557" y2="1283.5596" gradientTransform="matrix(1 0 0 1 579.04 -722.3845)">
		<stop  offset="0" style="stop-color:#00C0F2"/>
		<stop  offset="1" style="stop-color:#957CB8"/>
	</linearGradient>
	<path class="st8" d="M182.7,574.1l-1.5-4l30.9-11.2l1.3,4L182.7,574.1z"/>
	
		<linearGradient id="SVGID_7_" gradientUnits="userSpaceOnUse" x1="-320.8861" y1="1273.343" x2="-352.6514" y2="1279.4104" gradientTransform="matrix(1 0 0 1 579.04 -722.3845)">
		<stop  offset="0" style="stop-color:#EE5A9F"/>
		<stop  offset="1" style="stop-color:#957CB8"/>
	</linearGradient>
	<path class="st9" d="M258.6,548.7l0.7,4.2l-33.3,6.4l-0.7-4.2L258.6,548.7z"/>
	
		<linearGradient id="SVGID_8_" gradientUnits="userSpaceOnUse" x1="-400.3335" y1="1145.3628" x2="-438.0493" y2="1159.8778" gradientTransform="matrix(1 0 0 1 579.04 -722.3845)">
		<stop  offset="0" style="stop-color:#69BD60"/>
		<stop  offset="1" style="stop-color:#D02026"/>
	</linearGradient>
	<path class="st10" d="M179.2,420.4l1.5,4l-40.3,15.6l-1.5-4L179.2,420.4z"/>
	
		<linearGradient id="SVGID_9_" gradientUnits="userSpaceOnUse" x1="-395.0726" y1="1170.5077" x2="-393.3315" y2="1149.5175" gradientTransform="matrix(1 0 0 1 579.04 -722.3845)">
		<stop  offset="0" style="stop-color:#9C9FA1"/>
		<stop  offset="0.184" style="stop-color:#95A69A"/>
		<stop  offset="0.484" style="stop-color:#83B98C"/>
		<stop  offset="0.861" style="stop-color:#6CBF6F"/>
		<stop  offset="1" style="stop-color:#69BD60"/>
	</linearGradient>
	<path class="st11" d="M186.1,448.6l-4.2-0.4l1.8-21.6l4.2,0.4L186.1,448.6z"/>
	
		<linearGradient id="SVGID_10_" gradientUnits="userSpaceOnUse" x1="-324.4196" y1="1172.7736" x2="-385.1225" y2="1145.8525" gradientTransform="matrix(1 0 0 1 579.04 -722.3845)">
		<stop  offset="0" style="stop-color:#F6BC26"/>
		<stop  offset="1" style="stop-color:#69BD60"/>
	</linearGradient>
	<path class="st12" d="M256.8,449.1l-1.5,3.7l-63.5-28l1.5-4L256.8,449.1z"/>
	
		<linearGradient id="SVGID_11_" gradientUnits="userSpaceOnUse" x1="-324.045" y1="1178.308" x2="-385.1887" y2="1181.1665" gradientTransform="matrix(1 0 0 1 579.04 -722.3845)">
		<stop  offset="0" style="stop-color:#F6BC26"/>
		<stop  offset="0.6" style="stop-color:#AAA48B"/>
		<stop  offset="1" style="stop-color:#9C9FA1"/>
	</linearGradient>
	<path class="st13" d="M255,453.7l0.2,4.4l-61.5,2.9l-0.2-4.4L255,453.7z"/>
	
		<linearGradient id="SVGID_12_" gradientUnits="userSpaceOnUse" x1="-364.5172" y1="1238.4271" x2="-360.722" y2="1274.0624" gradientTransform="matrix(1 0 0 1 579.04 -722.3845)">
		<stop  offset="0" style="stop-color:#3D70B6"/>
		<stop  offset="0.99" style="stop-color:#957CB8"/>
	</linearGradient>
	<path class="st14" d="M212.3,515.9l4.4-0.4l3.7,36.4l-4.2,0.4L212.3,515.9z"/>
	
		<linearGradient id="SVGID_13_" gradientUnits="userSpaceOnUse" x1="-389.5379" y1="1192.2693" x2="-369.7643" y2="1224.0852" gradientTransform="matrix(1 0 0 1 579.04 -722.3845)">
		<stop  offset="0" style="stop-color:#9C9FA1"/>
		<stop  offset="1" style="stop-color:#3D70B6"/>
	</linearGradient>
	<path class="st15" d="M186.7,469.6l3.7-2.4l21.6,34.8l-3.7,2.4L186.7,469.6z"/>
	
		<linearGradient id="SVGID_14_" gradientUnits="userSpaceOnUse" x1="-314.942" y1="1188.9604" x2="-319.1846" y2="1217.0033" gradientTransform="matrix(1 0 0 1 579.04 -722.3845)">
		<stop  offset="0" style="stop-color:#F6BC26"/>
		<stop  offset="1" style="stop-color:#25B89B"/>
	</linearGradient>
	<path class="st16" d="M262.1,465.6l4.2,0.7l-4.4,29.3l-4.2-0.7L262.1,465.6z"/>
	
		<linearGradient id="SVGID_15_" gradientUnits="userSpaceOnUse" x1="-331.9896" y1="1229.015" x2="-358.0687" y2="1230.8398" gradientTransform="matrix(1 0 0 1 579.04 -722.3845)">
		<stop  offset="0" style="stop-color:#25B89B"/>
		<stop  offset="0.99" style="stop-color:#3D70B6"/>
	</linearGradient>
	<path class="st17" d="M247.1,504.4l0.4,4.4l-26.7,1.8l-0.4-4.2L247.1,504.4z"/>
	
		<linearGradient id="SVGID_16_" gradientUnits="userSpaceOnUse" x1="-319.0756" y1="1239.5253" x2="-314.8286" y2="1264.5553" gradientTransform="matrix(1 0 0 1 579.04 -722.3845)">
		<stop  offset="0" style="stop-color:#25B89B"/>
		<stop  offset="1" style="stop-color:#EE5A9F"/>
	</linearGradient>
	<path class="st18" d="M257.7,516.7l4.2-0.7l4.6,26.4l-4.2,0.7L257.7,516.7z"/>
	<path class="st19" d="M135.1,489.6c10.6,1.1,18.5,10.4,17.4,21.2c-1.1,10.6-10.4,18.5-21.2,17.4c-10.6-1.1-18.5-10.4-17.4-21.2
		C115.1,496.5,124.6,488.5,135.1,489.6z"/>
	<path class="st20" d="M259.2,494.3c6.4,0.7,11,6.2,10.6,12.6c-0.7,6.4-6.2,11-12.6,10.6c-6.4-0.7-11-6.2-10.6-12.6
		C247.1,498.5,252.8,493.8,259.2,494.3z"/>
	<path class="st21" d="M266.9,443.8c6.4,0.7,11,6.2,10.6,12.6c-0.7,6.4-6.2,11-12.6,10.6c-6.4-0.7-11-6.2-10.6-12.6
		C254.8,448,260.5,443.1,266.9,443.8z"/>
	<path class="st22" d="M186.9,412.3c4.2,0.4,7.5,4.2,7.1,8.4c-0.4,4.2-4.2,7.5-8.4,7.1s-7.5-4.2-7.1-8.4
		C179,415.1,182.7,412.1,186.9,412.3z"/>
	<path class="st23" d="M266.1,541.9c4.2,0.4,7.5,4.2,7.1,8.4c-0.4,4.2-4.2,7.5-8.4,7.1c-4.2-0.4-7.5-4.2-7.1-8.4
		C258.1,544.5,261.9,541.4,266.1,541.9z"/>
	<path class="st24" d="M160.5,577.8c-1.1-6.4,3.3-12.3,9.5-13.4c6.4-1.1,12.3,3.3,13.4,9.5c1.1,6.4-3.3,12.3-9.5,13.4
		C167.5,588.4,161.6,584.2,160.5,577.8z"/>
	<path class="st25" d="M140.6,443.1c-1.5,4-6,6-9.9,4.6c-4.2-1.5-6.2-6-4.6-9.9c1.5-4,6-6,9.9-4.6C140,434.8,142,439.2,140.6,443.1z
		"/>
	<path class="st1" d="M187.8,469.8c-5.7,2.6-12.8,0-15.4-5.7c-2.6-5.7,0-12.8,5.7-15.4c5.7-2.6,12.8,0,15.4,5.7
		C196.2,460.3,193.5,467.2,187.8,469.8z"/>
	<path class="st26" d="M211.2,516.1c-4-1.5-6-6-4.6-9.9c1.5-4,6-6,9.9-4.6c4,1.5,6,6,4.6,9.9C219.5,515.6,215.1,517.6,211.2,516.1z"
		/>
	<path class="st27" d="M213.2,563.3c-2.6-3.3-2.2-8.2,1.1-10.8c3.3-2.6,8.2-2.2,10.8,1.1c2.6,3.3,2.2,8.2-1.1,10.8
		C220.7,567,215.8,566.6,213.2,563.3z"/>
</g>
</svg>
