<?xml version="1.0" encoding="utf-8"?>
<!-- Generator: Adobe Illustrator 24.2.0, SVG Export Plug-In . SVG Version: 6.00 Build 0)  -->
<svg version="1.1" id="Layer_1" xmlns="http://www.w3.org/2000/svg" xmlns:xlink="http://www.w3.org/1999/xlink" x="0px" y="0px"
	 viewBox="0 0 1000 1000" style="enable-background:new 0 0 1000 1000;" xml:space="preserve">
<style type="text/css">
	.st0{fill-rule:evenodd;clip-rule:evenodd;fill:#262133;}
	.st1{fill:url(#SVGID_1_);}
</style>
<g transform="matrix(.631903 0 0 .631903 99.999981 153.061012)">
	<path class="st0" d="M1114.7,419.2v223.3c-0.1,3.6,1.2,7.2,3.7,9.8c2.5,2.6,6,4.1,9.6,4.2h4c3.7,0,7.2-1.5,9.8-4.1
		c2.6-2.6,4-6.2,3.9-9.9l0-223.3h26v229.2c0.1,17.3-13.7,31.4-31,31.7h-19.8c-8.5,0.1-16.7-3.2-22.7-9.2c-6-6-9.4-14.1-9.3-22.6
		V419.2H1114.7z M1299,416.6c17.3,0.4,31.4,16.6,31.4,34.3v20.7c0,2.9-2,5.5-4.8,6.3l-21.5,6.1v-29.9c0-7.6-6.2-13.7-13.8-13.7
		c-7.6,0-13.8,6.1-13.8,13.7V479c0,15.2,11.2,34.7,11.2,34.7l31,59.6c12.6,23.6,11.5,41,11.5,41v32.9c0.1,8.7-3.3,17-9.4,23.2
		c-6.1,6.2-14.4,9.7-23.1,9.7h-16.2c-17.5-1-31.3-15.4-31.3-32.9v-36.9c0-2.9,2-5.5,4.8-6.3l21.6-6.1v45.1
		c0.1,7.6,6.3,13.6,13.9,13.5c7.6-0.1,13.7-6.3,13.6-13.9v-29.5c0-15.1-11.2-35.1-11.2-35.1l-31-59.4c-12.6-23.6-11.6-41-11.6-41
		v-26.6c0-18.1,14.4-34.3,32.5-34.3L1299,416.6z M809.9,416.6c17.6,0.9,31.3,15.4,31.3,32.9v198.1c-0.2,17.3-13.9,31.6-31.3,32.5
		h-19.8c-17.8-0.3-32.2-14.6-32.5-32.4V449.5c-0.1-8.7,3.3-17,9.4-23.2c6.1-6.2,14.4-9.7,23.1-9.7L809.9,416.6z M512.3,419.2
		L506,441c-0.8,2.8-3.4,4.8-6.4,4.8h-41.5v83.1h43.1l-6.2,21.8c-0.8,2.8-3.4,4.8-6.4,4.7h-30.5v95.9h54.1l-6.1,21.4
		c-0.8,2.8-3.4,4.8-6.4,4.8h-67.6V419.2H512.3z M974.1,419.2c17.9,0.2,32.3,14.7,32.2,32.5v193.4c0,17.8-14.4,32.3-32.2,32.5h-50.1
		V419.2H974.1z M632.9,502.2l23.9-83.1h26.5l-37.1,129.2l37.1,129.2h-26.5l-23.9-83.1L609,677.5h-26.5l37.1-129.2l-37.1-129.2H609
		L632.9,502.2z M801.2,656.9c3.7-0.1,7.3-1.6,9.9-4.3c2.6-2.7,4-6.3,3.9-10.1V454.2c0.1-3.7-1.3-7.4-3.9-10.1
		c-2.6-2.7-6.2-4.3-9.9-4.3h-4c-7.7,0.4-13.8,6.7-13.8,14.4v188.2c0,7.7,6.1,14,13.8,14.4H801.2z M966.8,651.4
		c7.3,0,13.8-3.8,13.8-13.7V459c0-9.6-6.5-13.3-13.8-13.3h-16.9v205.7H966.8z"/>
	
		<linearGradient id="SVGID_1_" gradientUnits="userSpaceOnUse" x1="-168.8699" y1="383.3357" x2="194.7605" y2="383.3357" gradientTransform="matrix(0.6319 0 0 -0.6319 42.3304 791.2693)">
		<stop  offset="0" style="stop-color:#41BBEC"/>
		<stop  offset="1" style="stop-color:#5D54A4"/>
	</linearGradient>
	<path class="st1" d="M190.6,549l108.7,108.7h-38.3c-6.6,0-12.9-2.6-17.5-7.3L142.2,549l101.2-101.5c4.7-4.6,11-7.2,17.5-7.2h38.3
		L190.6,549z M-8.6,447.5c-4.7-4.6-11-7.2-17.5-7.2h-38.3L44.3,549L-64.4,657.7H-26c6.6,0,12.9-2.6,17.5-7.3L92.6,549L-8.6,447.5z
		 M117.4,573.8L15.9,675.1c-4.6,4.7-7.2,11-7.2,17.5v38.3l108.7-108.7l108.7,108.7v-38.3c0-6.6-2.6-12.9-7.2-17.5L117.4,573.8z
		 M117.4,524.2L218.9,423c4.6-4.7,7.2-11,7.2-17.5v-38.3L117.4,475.9L8.8,367.2v38.3c0,6.6,2.6,12.9,7.2,17.5L117.4,524.2z"/>
</g>
</svg>
