<?xml version="1.0" encoding="utf-8"?>
<!-- Generator: Adobe Illustrator 24.2.0, SVG Export Plug-In . SVG Version: 6.00 Build 0)  -->
<svg version="1.1" id="Layer_1" xmlns="http://www.w3.org/2000/svg" xmlns:xlink="http://www.w3.org/1999/xlink" x="0px" y="0px"
	 viewBox="0 0 1000 1000" style="enable-background:new 0 0 1000 1000;" xml:space="preserve">
<style type="text/css">
	.st0{fill:#1B2143;}
	.st1{fill:#30A5DE;}
	.st2{fill-rule:evenodd;clip-rule:evenodd;fill:#30A5DE;}
</style>
<g transform="matrix(.151548 0 0 .151548 101.19 146.344)">
	<path class="st0" d="M1970,1946.9v435.2h-432.4v-379c0-31.2-25.3-56.4-56.4-56.4h-146.4v1041.9c0,31.1,25.3,56.4,56.4,56.4h146.4
		v-486h432.6v429.3c-0.4,31.1,24.4,56.9,55.5,57.3h147.3V2003.1c0-31.2-25.3-56.4-56.4-56.4H1970V1946.9z M2828.7,2219.1v522.1
		c0.4,47.5-24.4,91.7-65.3,116.1c-114.6,66.2-233.3-16.8-233.3-125.7v-456.1c0-31.1-25.3-56.4-56.4-56.4h-146.4v531.3
		c0.4,171.2,139,309.8,310.2,310.6h83.2c171.4-0.4,310.4-139.4,310.8-310.8v-474.7c0-31.1-25.3-56.4-56.4-56.4H2828.7z"/>
	<path class="st1" d="M5043.4,3045.6h146.4v-739.8c0-31.1-25.3-56.4-56.4-56.4H4987v739.3c-0.2,31.1,24.8,56.6,56,56.9H5043.4z"/>
	
		<ellipse transform="matrix(0.3827 -0.9239 0.9239 0.3827 1239.6238 5971.6479)" class="st2" cx="5088.4" cy="2058.2" rx="17.1" ry="17.1"/>
	<g>
		<path class="st0" d="M3554.8,2218.7c-212.4,0-386.2,151.8-386.2,364.2v114.8c0,212.4,173.8,363.3,386.2,363.3
			s386.2-151,386.2-363.3v-114.8C3941.2,2370.5,3767.4,2218.7,3554.8,2218.7z M3737.3,2711.4c0,100.4-82.1,167.3-182.8,167.3
			c-100.6,0-182.5-66.9-182.5-167.3v-143.3c0-100.4,82.1-167.3,182.5-167.3c100.4,0,182.8,66.9,182.8,167.3V2711.4z"/>
		<path class="st1" d="M4464.2,2218.7c-63.6-0.4-126.3,13.9-183.6,41.6v-256.2c0-31.2-25.3-56.4-56.4-56.4h-146.4v750
			c0,212.4,173.8,363.3,386.2,363.3c212.4,0,386.2-151,386.2-363.3v-114.8C4850.4,2370.5,4677,2218.7,4464.2,2218.7z M4647,2711.4
			c0,100.4-82.1,167.3-182.8,167.3c-100.4,0-182.5-66.9-182.5-167.3v-143.3c0-100.4,82.1-167.3,182.5-167.3
			c100.4,0,182.8,66.9,182.8,167.3V2711.4z"/>
		<path class="st0" d="M721.9,2036.8c0-221.3-107.8-411.9-189.9-473.8c0,0-6.3-3.5-5.7,5.4C519.5,1996.1,301,2112,181,2267.9
			c-277.1,360.3-19.6,755.2,243.1,828.2c146.4,41-34-72.3-57.3-311.3C338.3,2496.4,721.9,2276,721.9,2036.8L721.9,2036.8z"/>
		<path class="st1" d="M847.8,2182.5c-1.7-1.1-4.1-2-5.7,0.9c-4.6,53.8-59.5,168.8-129.2,274.7c-236.3,358.6-101.7,531.5-25.9,624.5
			c44,53.8,0,0,109.8-55.1c135.7-82.3,223.7-224.8,236.8-382.9C1055.1,2389.7,902.2,2229.2,847.8,2182.5z"/>
	</g>
</g>
</svg>
