<svg id="Layer_1" data-name="Layer 1" xmlns="http://www.w3.org/2000/svg" viewBox="0 0 1140.38 135.49"><defs><style>.cls-1{fill:#c60021;}</style></defs><path class="cls-1" d="M6564.92,7230.08l3.77-16.13h12.43l16.21-70.67H6584.9l3.77-16.13h42.47q24.21,0,36.86,12.29t12.65,33.07q0,25.23-15.69,41.4t-41,16.17Zm42.24-16.13h15.62q14.8,0,22.94-14.62a64,64,0,0,0,8.14-31.68q0-10.84-6.59-17.61t-17.68-6.76h-6.22Z" transform="translate(-6564.92 -7127.15)"/><path class="cls-1" d="M6765.15,7214.76l-4.43,15.32h-32.94l1.32-5.77q-10.44,6.66-19.38,6.66-9.31,0-15.42-5.63a18.53,18.53,0,0,1-6.1-14.23,22.86,22.86,0,0,1,9.61-19.09q9.63-7.29,26.79-7.3,3.84,0,13.17,2.07l1.19-5.92a6.9,6.9,0,0,0,.22-1.7,7.17,7.17,0,0,0-3.59-6.21,15.83,15.83,0,0,0-8.92-2.37q-7.17,0-16.79,4.88l-10.88-10.8a65.07,65.07,0,0,1,31-8.14q14.66,0,22.83,5.84a18.7,18.7,0,0,1,8.17,16.06,29,29,0,0,1-.81,6.58l-7,29.75Zm-33-3.78,2.71-11.92a41,41,0,0,0-10.85-1.46q-6.87,0-11.15,3.27a9.94,9.94,0,0,0-4.28,8.24,7.61,7.61,0,0,0,2.47,5.76,8.35,8.35,0,0,0,5.95,2.34Q6724.07,7217.21,6732.12,7211Z" transform="translate(-6564.92 -7127.15)"/><path class="cls-1" d="M6852,7214.76l-4.43,15.32h-32.94l1.31-5.77q-10.43,6.66-19.38,6.66-9.32,0-15.42-5.63a18.53,18.53,0,0,1-6.1-14.23q0-11.79,9.62-19.09t26.78-7.3c2.57,0,6.95.69,13.17,2.07l1.19-5.92a6.9,6.9,0,0,0,.22-1.7,7.15,7.15,0,0,0-3.59-6.21,15.82,15.82,0,0,0-8.91-2.37q-7.19,0-16.8,4.88l-10.88-10.8a65.08,65.08,0,0,1,31-8.14q14.64,0,22.82,5.84a18.68,18.68,0,0,1,8.17,16.06,29,29,0,0,1-.81,6.58l-7,29.75Zm-33-3.78,2.7-11.92a40.89,40.89,0,0,0-10.85-1.46q-6.87,0-11.15,3.27a10,10,0,0,0-4.28,8.24,7.61,7.61,0,0,0,2.47,5.76,8.38,8.38,0,0,0,5.95,2.34Q6810.94,7217.21,6819,7211Z" transform="translate(-6564.92 -7127.15)"/><path class="cls-1" d="M6847.29,7262.64l3.63-15.32h10.13L6878,7173.7h-10.14l3.47-15.32h32.06l-2.21,9.4.29.29q10.23-10.57,21.71-10.58a21.88,21.88,0,0,1,17.6,8.1q6.78,8.11,6.78,21.13,0,18.95-11,32.23t-26.47,13.28q-13.41,0-20.88-11.84l-6.21,26.93h11.87l-3.7,15.32Zm66.66-87.91q-7.43,0-13.53,8.33a30.75,30.75,0,0,0-6.11,18.68,13.86,13.86,0,0,0,3.44,9.62,11,11,0,0,0,8.56,3.85q7.78,0,13.3-8t5.53-19.39q0-6-3-9.55A10.22,10.22,0,0,0,6914,7174.73Z" transform="translate(-6564.92 -7127.15)"/><path class="cls-1" d="M6947.71,7230.08l3.84-16.13h10.14l16.35-70.67h-10.13l3.62-16.13H7025q14.07,0,21.94,8.18a27.36,27.36,0,0,1,7.88,19.72,29.5,29.5,0,0,1-6.1,18.13q-6.12,8.13-17.52,9.62l8.83,31.15h10.28l-3.77,16.13h-26.26L7009,7184.35h-14.39l-6.85,29.6h9.84l-3.92,16.13Zm49.95-59h11.07q19.49,0,19.49-16.17a11.13,11.13,0,0,0-3.33-8.56,12.66,12.66,0,0,0-9-3.1H7004.1Z" transform="translate(-6564.92 -7127.15)"/><path class="cls-1" d="M7110.21,7208.7l16.2,7.32q-10.8,16.21-32.26,16.21-15,0-23.83-8.48t-8.88-22.63a45.3,45.3,0,0,1,11.91-31.37q11.92-13.22,29.46-13.22,13.6,0,22.71,8.62t9.1,23.27a53.48,53.48,0,0,1-1,10.21h-50.91a26,26,0,0,0-.45,4.68q0,6.84,3.67,10.74a12.62,12.62,0,0,0,9.65,3.9Q7104.81,7218,7110.21,7208.7Zm-24.87-21.76h28.34a17.87,17.87,0,0,0,.3-3.25,12.72,12.72,0,0,0-3.44-9.29,11.42,11.42,0,0,0-8.47-3.52Q7090.67,7170.88,7085.34,7186.94Z" transform="translate(-6564.92 -7127.15)"/><path class="cls-1" d="M7195.82,7203.89l15.76,7.69q-12.43,20.66-34.41,20.65-14.86,0-23.86-8.73t-9-23.09a41.57,41.57,0,0,1,12.32-30.19q12.31-12.59,29.49-12.58a29,29,0,0,1,17.24,5.47l1.11-4.73h16.06l-6.22,26.86h-16.06q-.81-10.36-11.84-10.36-8.13,0-13.76,7.45t-5.62,18.5a14.32,14.32,0,0,0,3.44,9.93,11.31,11.31,0,0,0,8.84,3.86Q7189.24,7214.62,7195.82,7203.89Z" transform="translate(-6564.92 -7127.15)"/><path class="cls-1" d="M7256.13,7232.23q-13.85,0-22.46-8.33t-8.62-21.6q0-19.24,12.76-32.51a41.81,41.81,0,0,1,31.34-13.26q14.51,0,22.87,9.22a31.89,31.89,0,0,1,8.36,22.18,43.1,43.1,0,0,1-12.69,31.37Q7275,7232.23,7256.13,7232.23Zm11-59.64q-9.09,0-14.46,9.74a42.31,42.31,0,0,0-5.37,20.72q0,6,2.81,9.56a9.2,9.2,0,0,0,7.63,3.56q8.94,0,14.65-9.71a40.19,40.19,0,0,0,5.7-20.68q0-6-3-9.6A9.82,9.82,0,0,0,7267.15,7172.59Z" transform="translate(-6564.92 -7127.15)"/><path class="cls-1" d="M7303.71,7230.08l3.48-15.32h7.91l9.55-41.06h-10.8l3.47-15.32H7350l-2.05,8.95q10.2-6.28,14.9-8.06a27.31,27.31,0,0,1,9.8-1.78,16.07,16.07,0,0,1,11.87,4.62q4.62,4.64,4.62,12.25a28.57,28.57,0,0,1-.74,6.29l-7.92,34.11h9.8l-3.56,15.32h-31.67l10.51-45.28a17.29,17.29,0,0,0,.52-3.93c0-4.09-1.76-6.14-5.26-6.14s-9.08,2.64-16.39,7.91l-7.38,32.12h9.12l-3.55,15.32Z" transform="translate(-6564.92 -7127.15)"/><path class="cls-1" d="M7395.24,7230.08l3.48-15.32h7.92l9.55-41.06h-10.81l3.47-15.32h32.7l-2.06,8.95q10.2-6.28,14.9-8.06a27.35,27.35,0,0,1,9.8-1.78,16.07,16.07,0,0,1,11.87,4.62q4.62,4.64,4.63,12.25a28.57,28.57,0,0,1-.74,6.29l-7.92,34.11h9.79l-3.55,15.32H7446.6l10.51-45.28a17.8,17.8,0,0,0,.51-3.93q0-6.14-5.26-6.14-5.41,0-16.39,7.91l-7.38,32.12h9.13l-3.55,15.32Z" transform="translate(-6564.92 -7127.15)"/><path class="cls-1" d="M7544.2,7208.7l16.21,7.32q-10.82,16.21-32.27,16.21-14.94,0-23.82-8.48t-8.88-22.63a45.3,45.3,0,0,1,11.91-31.37q11.91-13.22,29.45-13.22,13.62,0,22.72,8.62t9.1,23.27a53.52,53.52,0,0,1-1,10.21h-50.91a26.93,26.93,0,0,0-.44,4.68q0,6.84,3.66,10.74a12.63,12.63,0,0,0,9.66,3.9Q7538.81,7218,7544.2,7208.7Zm-24.86-21.76h28.34a17.85,17.85,0,0,0,.29-3.25,12.68,12.68,0,0,0-3.44-9.29,11.39,11.39,0,0,0-8.47-3.52Q7524.66,7170.88,7519.34,7186.94Z" transform="translate(-6564.92 -7127.15)"/><path class="cls-1" d="M7629.82,7203.89l15.76,7.69q-12.43,20.66-34.41,20.65-14.88,0-23.87-8.73t-9-23.09a41.61,41.61,0,0,1,12.32-30.19q12.33-12.59,29.49-12.58a29,29,0,0,1,17.24,5.47l1.11-4.73h16.06l-6.21,26.86h-16.06q-.83-10.36-11.84-10.36-8.15,0-13.76,7.45t-5.63,18.5a14.37,14.37,0,0,0,3.44,9.93,11.32,11.32,0,0,0,8.84,3.86Q7623.23,7214.62,7629.82,7203.89Z" transform="translate(-6564.92 -7127.15)"/><path class="cls-1" d="M7698.93,7211.29l-3.91,16.5a43.3,43.3,0,0,1-18.47,4.44q-6.95,0-11.19-4a13.89,13.89,0,0,1-4.24-10.55,42.69,42.69,0,0,1,1.25-10l7.81-34h-8.4l3.49-15.32h8.45l2.42-10.44,26.25-18.24-6.71,28.68h9.61l-3.43,15.32h-9.58l-7.77,33.22a19,19,0,0,0-.59,4.07c0,2.52,1.5,3.77,4.49,3.77S7694.76,7213.61,7698.93,7211.29Z" transform="translate(-6564.92 -7127.15)"/></svg>