<?xml version="1.0" encoding="utf-8"?>
<!-- Generator: Adobe Illustrator 24.2.0, SVG Export Plug-In . SVG Version: 6.00 Build 0)  -->
<svg version="1.1" id="Layer_1" xmlns="http://www.w3.org/2000/svg" xmlns:xlink="http://www.w3.org/1999/xlink" x="0px" y="0px"
	 viewBox="0 0 1000 1000" style="enable-background:new 0 0 1000 1000;" xml:space="preserve">
<style type="text/css">
	.st0{fill-rule:evenodd;clip-rule:evenodd;fill:#243E86;}
</style>
<g id="Page-1">
	<g id="logo-blue" transform="translate(0.000000, -1.000000)">
		<g id="Fill-17">
			<path id="path-1_1_" class="st0" d="M414.4,497.5v127h48.4V607h-27.9V497.5H414.4z M916.9,542.8v-21c0-15.4-10.3-25.4-29-25.4
				c-18.7,0-29,10.2-29,25.4v78.3c0,15.2,10.3,25.4,29,25.4c18.7,0,29-10,29-25.4v-39h-28.7v17.4h8.7v21.6c0,4.9-3.8,7.4-9.1,7.4
				c-5.6,0-8.3-2.5-8.3-7.4v-78.3c-1.5-10,18-9.6,17.4,0v21H916.9z M826.6,534.9c0,9.8,0.2,20.5,0.5,32.1l-18.9-69.5H786v127h18.7
				v-37.4c0-10.3-0.2-21.4-0.5-33.4l19.4,70.7h21.8v-127h-18.7V534.9z M750.6,624.4h20.5v-127h-20.5V624.4z M716.8,551
				c0,4.9-2.5,7.4-7.4,7.4h-9.2v-43.5h9.2c4.9,0,7.4,2.5,7.4,7.4V551z M737.3,551v-28.7c0-15.4-9.6-24.8-27.9-24.8h-29.7v127h20.5
				v-48.6h6.4l13,48.6h20.5L726,572.2C733.4,568.1,737.3,560.7,737.3,551z M648.9,551c0,4.9-2.5,7.4-7.4,7.4h-9.2v-43.5h9.2
				c4.9,0,7.4,2.5,7.4,7.4V551z M641.4,497.5h-29.7v127h20.5v-48.6h9.2c18.3,0,27.9-9.4,27.9-24.8v-28.7
				C669.4,506.9,659.8,497.5,641.4,497.5z M577.6,600.1c1.1,9.8-18.1,9.8-16.9,0v-78.3c-1.3-9.8,18-9.8,16.9,0V600.1z M569.1,496.4
				c-18.7,0-29,10.2-29,25.4v78.3c0,15.2,10.3,25.4,29,25.4c18.7,0,29-10,29-25.4v-78.3C598.1,506.4,587.8,496.4,569.1,496.4z
				 M507.4,600.1c1.1,9.8-18.1,9.8-16.9,0v-78.3c-1.3-9.8,18-9.8,16.9,0V600.1z M498.9,496.4c-18.7,0-29,10.2-29,25.4v78.3
				c0,15.2,10.3,25.4,29,25.4s29-10,29-25.4v-78.3C527.9,506.4,517.6,496.4,498.9,496.4z"/>
		</g>
		<path id="Path" class="st0" d="M263.9,497.4h131.6v0.8L190,623.6L292,542L263.9,497.4z M187.2,376.5v248.8L83.1,542L187.2,376.5z"
			/>
	</g>
</g>
</svg>
