<?xml version="1.0" encoding="utf-8"?>
<!-- Generator: Adobe Illustrator 19.2.1, SVG Export Plug-In . SVG Version: 6.00 Build 0)  -->
<svg version="1.1" id="layer" xmlns="http://www.w3.org/2000/svg" xmlns:xlink="http://www.w3.org/1999/xlink" x="0px" y="0px"
	 viewBox="0 0 652 652" style="enable-background:new 0 0 652 652;" xml:space="preserve">
<style type="text/css">
	.st0{fill:#555971;}
	.st1{fill:#60B9D9;}
	.st2{fill:#53BBA8;}
	.st3{fill:#356DB5;}
	.st4{fill:#1C87CA;}
</style>
<g>
	<path class="st0" d="M399.3,286.2l-24.6,24.6l-24.6-24.6c-1.8-1.8-4.7-1.8-6.6,0c-1.8,1.8-1.8,4.7,0,6.6l26.5,26.5v35.2
		c0,2.6,2.1,4.6,4.6,4.6c2.6,0,4.6-2.1,4.6-4.6v-35.2l26.5-26.5c1.8-1.8,1.8-4.7,0-6.6C404.1,284.4,401.1,284.4,399.3,286.2"/>
	<path class="st0" d="M325.1,286.2l-24.6,24.6L276,286.2c-1.8-1.8-4.7-1.8-6.6,0c-0.9,0.9-1.4,2.1-1.4,3.3v64.9
		c0,2.6,2.1,4.6,4.6,4.6c2.6,0,4.6-2.1,4.6-4.6v-53.7l19.9,19.9c0.9,0.9,2.1,1.4,3.3,1.4c1.2,0,2.4-0.5,3.3-1.4l19.9-19.9v53.7
		c0,2.6,2.1,4.6,4.6,4.6c2.6,0,4.6-2.1,4.6-4.6v-64.9c0-1.2-0.5-2.4-1.4-3.3C329.8,284.4,326.9,284.4,325.1,286.2"/>
	<path class="st0" d="M619.3,286.2c-1.8-1.8-4.7-1.8-6.6,0l-24.6,24.6l-24.6-24.6c-1.8-1.8-4.7-1.8-6.6,0c-1.8,1.8-1.8,4.7,0,6.6
		l26.5,26.5v35.2c0,2.6,2.1,4.6,4.6,4.6c2.6,0,4.6-2.1,4.6-4.6v-35.2l26.5-26.5C621.1,290.9,621.1,288,619.3,286.2"/>
	<path class="st0" d="M541.8,317.3h-46.4c-2.6,0-4.6,2.1-4.6,4.6c0,2.6,2.1,4.6,4.6,4.6h46.4c2.6,0,4.6-2.1,4.6-4.6
		C546.4,319.4,544.3,317.3,541.8,317.3 M541.8,349.8h-46.4c-2.6,0-4.6,2.1-4.6,4.6c0,2.6,2.1,4.6,4.6,4.6h46.4
		c2.6,0,4.6-2.1,4.6-4.6C546.4,351.9,544.3,349.8,541.8,349.8 M495.4,294.1h46.4c2.6,0,4.6-2.1,4.6-4.6c0-2.6-2.1-4.6-4.6-4.6h-46.4
		c-2.6,0-4.6,2.1-4.6,4.6C490.7,292,492.8,294.1,495.4,294.1"/>
	<path class="st0" d="M430.4,284.8c-2.6,0-4.6,2.1-4.6,4.6v64.9c0,2.6,2.1,4.6,4.6,4.6c2.6,0,4.6-2.1,4.6-4.6v-64.9
		C435.1,286.9,433,284.8,430.4,284.8 M480.1,351.1l-29.2-29.2l29.2-29.2c0,0,0,0,0,0c1.8-1.8,1.8-4.7,0-6.6c-1.8-1.8-4.7-1.8-6.6,0
		l-35.8,35.8l35.7,35.7c0.8,0.8,2,1.4,3.3,1.4c2.6,0,4.6-2.1,4.6-4.6C481.5,353.1,480.9,352,480.1,351.1z"/>
</g>
<rect x="439.7" y="317.3" transform="matrix(0.7071 -0.7071 0.7071 0.7071 -97.4963 408.492)" width="9.3" height="9.3"/>
<g>
	<path class="st1" d="M175.3,229.2c-8.5,0-16.3,3.5-21.9,9.1l-83.7,83.7l43.7,43.7l83.7-83.7c5.6-5.6,9.1-13.3,9.1-21.9
		C206.2,243,192.4,229.2,175.3,229.2"/>
	<path class="st2" d="M175.3,414.7c-8.5,0-16.3-3.5-21.9-9.1l-83.7-83.7l43.7-43.7l83.7,83.7c5.6,5.6,9.1,13.3,9.1,21.9
		C206.2,400.9,192.4,414.7,175.3,414.7"/>
</g>
<rect x="82.5" y="291" transform="matrix(0.7071 -0.7071 0.7071 0.7071 -194.4298 174.5076)" class="st3" width="61.9" height="61.9"/>
<g>
	<path class="st2" d="M82.5,260.1c0,17.1-13.8,30.9-30.9,30.9c-17.1,0-30.9-13.8-30.9-30.9c0-17.1,13.8-30.9,30.9-30.9
		C68.6,229.2,82.5,243,82.5,260.1"/>
	<path class="st4" d="M206.2,260.1c0,17.1-13.8,30.9-30.9,30.9c-17.1,0-30.9-13.8-30.9-30.9c0-17.1,13.8-30.9,30.9-30.9
		C192.4,229.2,206.2,243,206.2,260.1"/>
	<path class="st4" d="M82.5,383.8c0,17.1-13.8,30.9-30.9,30.9c-17.1,0-30.9-13.8-30.9-30.9c0-17.1,13.8-30.9,30.9-30.9
		C68.6,352.9,82.5,366.7,82.5,383.8"/>
</g>
</svg>
