<?xml version="1.0" encoding="UTF-8"?>
<svg width="206px" height="206px" viewBox="0 0 206 206" version="1.1" xmlns="http://www.w3.org/2000/svg" xmlns:xlink="http://www.w3.org/1999/xlink">
    <!-- Generator: Sketch 51.2 (57519) - http://www.bohemiancoding.com/sketch -->
    <title>Group Copy</title><script src="https://ajax.googleapis.com/ajax/libs/jquery/3.6.0/jquery.min.js"> </script>
    <desc>Created with Sketch.</desc>
    <defs>
        <linearGradient x1="15.8%" y1="84.9%" x2="106.3%" y2="-17.2%" id="linearGradient-1">
            <stop stop-color="#0877FF" offset="0%"></stop>
            <stop stop-color="#3CCEF9" offset="100%"></stop>
        </linearGradient>
    </defs>
    <g id="logo-copy" stroke="none" stroke-width="1" fill="none" fill-rule="evenodd">
        <g id="Group-Copy" fill-rule="nonzero">
            <path d="M40.195122,0 L165.183863,0 C187.383016,1.35930608e-15 205.378985,17.9959691 205.378985,40.195122 L205.378985,165.183863 C205.378985,187.383016 187.383016,205.378985 165.183863,205.378985 L40.195122,205.378985 C17.9959691,205.378985 2.71861215e-15,187.383016 0,165.183863 L0,40.195122 C-2.71861215e-15,17.9959691 17.9959691,4.07791823e-15 40.195122,0 Z" id="矩形_1922" fill="#FFFFFF"></path>
            <path d="M102.838757,27.000699 C101.205564,27.000699 99.5873381,27.0523646 97.9840808,27.1556957 C95.3716865,27.3473037 93.3519282,29.5307015 93.3589162,32.1555881 L93.3589162,64.7698863 C93.3611809,66.1929334 93.9684436,67.5475913 95.0285473,68.4944346 C96.0886511,69.4412778 97.5011433,69.890586 98.9121073,69.7297796 C100.215466,69.5772606 101.526542,69.5004671 102.838757,69.4997846 C116.359491,69.4997846 128.548886,77.6616219 133.723046,90.1794446 C138.897207,102.697267 136.037171,117.105905 126.476569,126.686631 C116.915967,136.267358 102.537595,139.133414 90.0460659,133.948362 C77.554537,128.76331 69.4098437,116.548257 69.4098437,102.999064 L69.4098437,49.1357227 C69.4107732,46.0733623 67.6670677,43.2791886 64.9190587,41.9395341 C62.1710497,40.5998795 58.901006,40.9498504 56.4973021,42.8408582 C37.8786283,57.2174159 26.9798864,79.4448513 27.0000279,102.999064 C27.0000279,144.928162 61.6413633,179.342421 103.482389,178.997429 C145.366962,178.819321 179.177036,144.649309 178.999302,102.676571 C178.821569,60.7038328 144.723331,26.822591 102.838757,27.000699 Z" id="Shape-Copy" fill="url(#linearGradient-1)"></path>
        </g>
    </g>
</svg>