<svg id="Layer_1" data-name="Layer 1" xmlns="http://www.w3.org/2000/svg" viewBox="0 0 791.9 260.11"><path d="M6776.94,7108.65c16.34,5.53,39.06,8.81,64.31,8.81s48-3.28,64.3-8.81c14.34-4.78,23.3-10.58,23.3-16.26s-8.88-11.45-23.3-16.24c-16.32-5.44-39-8.81-64.3-8.81s-48,3.37-64.31,8.73c-30.41,10.16-31.24,22.06,0,32.5Zm148.43,66a70,70,0,0,1,49.64,20.56h0a70.13,70.13,0,0,1,0,99.18l0,0h0a70.14,70.14,0,0,1-99.18.05l-.05-.05h0a70.13,70.13,0,0,1,0-99.18l0,0h0a70,70,0,0,1,49.61-20.56Zm4,37.09-6,29.73-5.93-8.93c-12.7,5.12-19.94,13.59-21,26.59-10.59-18.33-4.13-34.79,9.17-44.46l-6.06-9.11,29.65,6.14Zm-9.5,68,5.84-29.65,6,8.94c12.71-5.12,19.95-13.59,21-26.6,10.58,18.34,4.23,34.79-9.17,44.47l6.05,9.11-29.64-6.14Zm47.39-76.68a59.29,59.29,0,1,0,17.34,41.87A59.3,59.3,0,0,0,6967.24,7203.11Zm-132.94,44.47c-23.78-.49-45.25-4-61.24-9.31a78.35,78.35,0,0,1-19.06-9v40.62c1.13,5.27,9.72,10.59,23.06,15.05,16.35,5.47,39.07,8.83,64.31,8.83h7.24a93.21,93.21,0,0,0,9.15,12.05q-8,.47-16.39.47c-26.51,0-50.65-3.62-68.24-9.49-9.28-3.11-31.58-13.28-31.58-25.41v-4.09c-.12-55.49-.25-119.38-.25-174.88,0-11.6,12.11-21.45,31.76-28,17.54-5.89,41.67-9.51,68.19-9.51s50.65,3.62,68.24,9.51,29.48,14.65,31.43,24.92a6.38,6.38,0,0,1,.36,2.12v63.71a89.87,89.87,0,0,0-12.88-1.35,6,6,0,0,0,.36-2h0v-40.57a78.54,78.54,0,0,1-19.33,9.15c-17.6,5.86-41.74,9.5-68.25,9.5s-50.58-3.64-68.12-9.5a79.74,79.74,0,0,1-19.06-9V7153c1.13,5.27,9.72,10.58,23.06,15,16.22,5.4,38.94,8.83,64.19,8.83,8.63,0,16.94-.4,24.85-1.14q-2,1.68-3.81,3.47c-.46.38-.89.78-1.31,1.19h0a90.27,90.27,0,0,0-7.52,8.47c-4,.16-8,.25-12.17.25-26.56.19-50.69-3.43-68.23-9.32a78.25,78.25,0,0,1-19.06-9v40.62c1.13,5.27,9.72,10.58,23.06,15.05,14.93,5,35.18,8.22,57.83,8.75a91.08,91.08,0,0,0-.51,9.63v2.8Z" transform="translate(-6741.3 -7054.89)"/><path d="M7013.3,7201h-25.77l-7-110.48h-12.79l4.57-20.36h53.42l-4.67,20.36h-11.67l3.69,64.29,35.81-64.29h-13l4.58-20.36h46.88l-4.76,20.36H7071l3.79,64.29,35.81-64.29h-13l4.58-20.36H7153l-4.58,20.36h-11.86L7074.94,7201h-26l-3.37-57.67Z" transform="translate(-6741.3 -7054.89)"/><path d="M7128.78,7200.08l4.86-20.36h12.23l20.64-89.19h-12.23l4.57-20.36H7265l-9.62,41.37h-24.28l4.76-21h-36.7l-7.62,33.25h30.59l-4.77,20.35h-30.49l-8.16,35.59h37.44l4.86-20.36h23.44l-9.53,40.72Z" transform="translate(-6741.3 -7054.89)"/><path d="M7254.39,7179.81h12.89l20.64-89.28h-12.8l4.58-20.36h58.93q19.6,0,29.79,8.73t10.18,23q0,25-29.51,31.17Q7369,7144.75,7369,7163q0,17-13.54,27.06a50.11,50.11,0,0,1-30.63,10.05h-75.18Zm45.74.93h15.51q10.38,0,16-7.14a26.34,26.34,0,0,0,5.61-16.76,14.78,14.78,0,0,0-4.5-11.26q-4.48-4.24-12.35-4.25h-11.14Zm13.34-57.71h12.06q20.94,0,20.94-20.4,0-12.66-13.85-12.66h-11.51Z" transform="translate(-6741.3 -7054.89)"/><path d="M7363.32,7223.73h43.78a71,71,0,0,0-1.86,15.44q0,14.09,6.45,22t17.65,7.89q15.27,0,24.35-15.65t9.08-31.47q0-26.88-32.42-26.87h-4.24l8.49-35.13q30.19-1.18,40.3-16.29t10.1-31.06a15.16,15.16,0,0,0-5.09-11.63,18.14,18.14,0,0,0-12.73-4.66q-23.25,0-30.55,32.92h-44.46q14.94-68.39,76.71-68.39,29.52,0,46.92,15.35t17.4,41.29q0,23.4-14.51,40.19T7478,7178.5v.68q35,14.26,35,51.45,0,30.57-23.33,52.22t-56.6,21.65q-33.09,0-52.1-17t-19-47.17A106.74,106.74,0,0,1,7363.32,7223.73Z" transform="translate(-6741.3 -7054.89)" style="fill:#c60021"/><path d="M7003.23,7284.86l1.59-7h4l4.38-18.84h-4.44l1.59-7h13.31l-2.2,9.53.14.14q5.27-7.66,7.29-8.83a8.41,8.41,0,0,1,4.23-1.15,16.11,16.11,0,0,1,3,.31l-2,8.75a15.56,15.56,0,0,0-3.06-.34q-8.14,0-10.53,10.42l-1.6,7H7024l-1.63,7Z" transform="translate(-6741.3 -7054.89)"/><path d="M7058.42,7275.06l7.43,3.36q-5,7.42-14.8,7.43-6.86,0-10.93-3.89a13.69,13.69,0,0,1-4.07-10.38,20.78,20.78,0,0,1,5.46-14.39,17.48,17.48,0,0,1,13.51-6.06,14.58,14.58,0,0,1,10.42,3.95q4.17,4,4.18,10.68a24.3,24.3,0,0,1-.48,4.68h-23.35a11.63,11.63,0,0,0-.2,2.15,6.89,6.89,0,0,0,1.68,4.92,5.79,5.79,0,0,0,4.43,1.79C7054.52,7279.3,7056.76,7277.88,7058.42,7275.06Zm-11.41-10h13a8.46,8.46,0,0,0,.14-1.5,5.85,5.85,0,0,0-1.58-4.26,5.24,5.24,0,0,0-3.89-1.61Q7049.46,7257.71,7047,7265.08Z" transform="translate(-6741.3 -7054.89)"/><path d="M7097.69,7272.85l7.23,3.53q-5.72,9.46-15.79,9.47-6.82,0-10.94-4a14.09,14.09,0,0,1-4.13-10.59,19.09,19.09,0,0,1,5.65-13.84,18.27,18.27,0,0,1,13.53-5.77,13.3,13.3,0,0,1,7.91,2.51l.51-2.17H7109l-2.85,12.32h-7.36q-.37-4.76-5.43-4.76a7.69,7.69,0,0,0-6.32,3.42,13.69,13.69,0,0,0-2.58,8.49,6.58,6.58,0,0,0,1.58,4.55,5.18,5.18,0,0,0,4.06,1.77Q7094.66,7277.77,7097.69,7272.85Z" transform="translate(-6741.3 -7054.89)"/><path d="M7125.35,7285.85a14.22,14.22,0,0,1-10.3-3.82,13.16,13.16,0,0,1-4-9.91,20.64,20.64,0,0,1,5.86-14.91,19.14,19.14,0,0,1,14.37-6.08q6.66,0,10.49,4.23a14.59,14.59,0,0,1,3.83,10.17,19.78,19.78,0,0,1-5.82,14.39A19.46,19.46,0,0,1,7125.35,7285.85Zm5-27.36q-4.17,0-6.63,4.47a19.43,19.43,0,0,0-2.46,9.51,6.88,6.88,0,0,0,1.29,4.38,4.2,4.2,0,0,0,3.49,1.63q4.11,0,6.72-4.45a18.38,18.38,0,0,0,2.62-9.49,6.69,6.69,0,0,0-1.36-4.4A4.5,4.5,0,0,0,7130.4,7258.49Z" transform="translate(-6741.3 -7054.89)"/><path d="M7147.17,7284.86l1.6-7h3.63l4.38-18.84h-5l1.59-7h15l-.94,4.1a48.27,48.27,0,0,1,6.83-3.7,12.71,12.71,0,0,1,4.5-.81,7.38,7.38,0,0,1,5.44,2.12,7.59,7.59,0,0,1,2.12,5.61,12.85,12.85,0,0,1-.34,2.89l-3.63,15.65h4.49l-1.63,7h-14.52l4.82-20.77a8.52,8.52,0,0,0,.23-1.8c0-1.87-.8-2.81-2.41-2.81s-4.16,1.21-7.52,3.62l-3.38,14.74h4.18l-1.63,7Z" transform="translate(-6741.3 -7054.89)"/><path d="M7189.16,7284.86l1.59-7h3.63l4.38-18.84h-4.95l1.59-7h15l-.94,4.1a47.68,47.68,0,0,1,6.84-3.7,12.62,12.62,0,0,1,4.49-.81,7.4,7.4,0,0,1,5.45,2.12,7.59,7.59,0,0,1,2.12,5.61,13.45,13.45,0,0,1-.34,2.89l-3.63,15.65h4.49l-1.63,7h-14.53l4.82-20.77a8,8,0,0,0,.24-1.8c0-1.87-.81-2.81-2.42-2.81s-4.16,1.21-7.51,3.62l-3.39,14.74h4.19l-1.63,7Z" transform="translate(-6741.3 -7054.89)"/><path d="M7257.48,7275.06l7.43,3.36q-5,7.42-14.8,7.43-6.85,0-10.92-3.89a13.66,13.66,0,0,1-4.08-10.38,20.75,20.75,0,0,1,5.47-14.39,17.45,17.45,0,0,1,13.5-6.06,14.57,14.57,0,0,1,10.42,3.95q4.18,4,4.18,10.68a25.08,25.08,0,0,1-.47,4.68h-23.36a12.56,12.56,0,0,0-.2,2.15,6.89,6.89,0,0,0,1.68,4.92,5.81,5.81,0,0,0,4.43,1.79C7253.59,7279.3,7255.83,7277.88,7257.48,7275.06Zm-11.4-10h13a7.62,7.62,0,0,0,.14-1.5,5.85,5.85,0,0,0-1.58-4.26,5.24,5.24,0,0,0-3.88-1.61Q7248.52,7257.71,7246.08,7265.08Z" transform="translate(-6741.3 -7054.89)"/><path d="M7296.75,7272.85l7.23,3.53q-5.7,9.46-15.78,9.47-6.82,0-10.95-4a14.08,14.08,0,0,1-4.12-10.59,19.05,19.05,0,0,1,5.65-13.84,18.23,18.23,0,0,1,13.52-5.77,13.27,13.27,0,0,1,7.91,2.51l.51-2.17h7.37l-2.86,12.32h-7.36q-.37-4.76-5.43-4.76a7.66,7.66,0,0,0-6.31,3.42,13.69,13.69,0,0,0-2.58,8.49,6.57,6.57,0,0,0,1.57,4.55,5.21,5.21,0,0,0,4.06,1.77Q7293.73,7277.77,7296.75,7272.85Z" transform="translate(-6741.3 -7054.89)"/><path d="M7328.45,7276.24l-1.8,7.57a19.79,19.79,0,0,1-8.46,2,7.17,7.17,0,0,1-5.14-1.85,6.36,6.36,0,0,1-1.94-4.84,19.59,19.59,0,0,1,.57-4.58l3.58-15.58h-3.85l1.6-7h3.88l1.11-4.79,12-8.37L7327,7252h4.41l-1.58,7h-4.39l-3.56,15.24a8.6,8.6,0,0,0-.27,1.87c0,1.15.68,1.73,2.06,1.73A10.41,10.41,0,0,0,7328.45,7276.24Z" transform="translate(-6741.3 -7054.89)"/></svg>